# xmcd CD database file
#
# Track frame offsets:
#	150
#	23230
#	40580
#
# Disc length: 846 seconds
#
# Revision: 4
# Processed by: cddbd v1.5.2PL0 Copyright (c) Steve Scherf et al.
# Submitted via: CDex 1.70beta2
#
DISCID=18034c03
DTITLE=TUBE - 情熱
DYEAR=1997
DGENRE=JPop
TTITLE0=情熱
TTITLE1=Born in Japan
TTITLE2=情熱(オリジナル・カラオケ)
EXTD=YEAR: 1997
EXTT0=
EXTT1=
EXTT2=
PLAYORDER=
